<svg version="1.1" xmlns="http://www.w3.org/2000/svg" viewBox="-2679.890957130865 -1085.2 14027.090957130864 2677.5960021972655"><desc>Created with Snap</desc><defs></defs><g><rect x="-2679.890957130865" y="-1085.2" width="14027.090957130864" height="2677.5960021972655" fill="#143d59" style=""></rect><g transform="matrix(22.9499,0,0,22.9499,-2487.4404,-892.7495)"><g><path d="M78.4,66.5c-5.5,4.8-9.9,15.2-9.9,15.2s-6.9-11.4-12.9-15.3c-9.5-6.1-13.6-6.2-13.6-6.2V65c0,0,7.8,1.2,11.7,4.6   c8.2,7.1,14.8,18.5,14.8,18.5S74.4,75,80.1,70.5C88.1,64.3,95,65,95,65v-4.8C95,60.1,85.1,60.7,78.4,66.5z" fill="#f4b41a" style=""></path><path d="M42,80c-6.4-3.6-17.8-4.3-17.8-4.3s8.7-10.1,10.5-17C37.5,47.9,36.2,44,36.2,44l-4.6,1.6c0,0,1.3,7.7-0.6,12.4   c-4.1,9.9-13,19.8-13,19.8s14.6,1.3,20.7,5.1c8.6,5.4,10.2,12,10.2,12l4.6-1.6C53.5,93.4,49.7,84.4,42,80z" fill="#f4b41a" style=""></path><path d="M35.3,36.8c11.3-0.9,14.6-3.4,14.6-3.4l-3-3.8c0,0-6.9,3.7-12.1,3.4c-10.9-0.6-23.3-5.6-23.3-5.6s3.5,14,1.8,20.9   C10.9,58.2,5,61.8,5,61.8l3,3.8c0,0,7.5-6.5,9.1-15.1c1.3-7.1-1.7-18-1.7-18S28,37.4,35.3,36.8z" fill="#f4b41a" style=""></path><path d="M37.4,17.8c7.3-1.1,16.7-7.4,16.7-7.4s-0.6,13.2,2.4,19.8c4.6,10.2,8,12.5,8,12.5l2.7-4c0,0-5.9-5.2-7.3-10.2   C56.9,18.2,57.7,5,57.7,5s-12.3,7.8-19.5,8.5c-10.2,1-15.6-3.3-15.6-3.3l-2.7,4.1C19.9,14.2,28.6,19.1,37.4,17.8z" fill="#f4b41a" style=""></path><path d="M65,60.5c0,0,3.1-7.2,7.4-10.1c9-6.1,21.9-9.7,21.9-9.7s-11.5-8.9-14.5-15.4c-4.2-9.1-1.9-15.6-1.9-15.6l-4.8-1.2   c0,0-1.9,9.6,2.2,17.4c3.4,6.4,12.5,13.2,12.5,13.2S75,42.9,69.6,47.8c-8.3,7.6-9.4,11.5-9.4,11.5L65,60.5z" fill="#f4b41a" style=""></path></g><desc>Created with Snap</desc><defs></defs></g><g><g transform="matrix(0.5,0,0,-0.5,0,0)"><path d="M836 1317L836 131Q836 54 795 19Q755 -16 672 -16Q588 -16 548 19Q508 54 508 131L508 1327Q508 1382 432 1382Q377 1382 320 1365Q264 1349 218 1320Q173 1292 144 1252Q115 1213 115 1167Q115 1135 123 1116Q132 1097 143 1087Q154 1078 165 1075Q177 1073 182 1073Q207 1073 223 1081Q239 1090 252 1099Q265 1109 276 1117Q288 1126 303 1126Q315 1126 328 1120Q342 1115 353 1103Q365 1091 373 1071Q381 1052 381 1024Q381 984 365 955Q350 926 325 906Q301 887 269 877Q238 868 207 868Q159 868 120 884Q82 901 55 930Q28 959 14 998Q0 1037 0 1081Q0 1164 31 1227Q62 1291 118 1337Q175 1383 254 1413Q333 1444 429 1462Q525 1480 634 1487Q744 1495 862 1495Q1148 1495 1295 1385Q1442 1276 1442 1071Q1442 971 1415 894Q1389 817 1344 761Q1300 706 1242 671Q1184 637 1122 622Q1060 607 997 610Q935 613 881 633L895 676Q970 653 1018 674Q1067 696 1094 751Q1122 806 1132 890Q1143 974 1143 1075Q1143 1151 1127 1213Q1111 1276 1083 1320Q1056 1364 1019 1388Q983 1413 942 1413Q910 1413 889 1403Q869 1394 857 1379Q846 1365 841 1348Q837 1332 836 1317ZM2037 274L2037 518Q2037 543 2021 556Q2005 569 1980 569Q1945 569 1913 553Q1882 537 1858 506Q1834 475 1820 429Q1806 384 1806 324Q1806 266 1814 228Q1823 190 1837 167Q1852 145 1871 136Q1890 127 1911 127Q1937 127 1960 140Q1983 154 2000 175Q2017 196 2027 222Q2037 248 2037 274ZM1878 956Q1844 956 1815 948Q1786 940 1765 928Q1744 916 1732 901Q1720 887 1720 874Q1720 859 1735 852Q1751 846 1770 837Q1789 829 1804 813Q1820 798 1820 766Q1820 745 1811 727Q1803 710 1788 696Q1774 683 1754 675Q1735 668 1714 668Q1658 668 1623 706Q1589 744 1589 807Q1589 868 1621 911Q1653 955 1704 983Q1756 1011 1821 1024Q1886 1038 1951 1038Q2029 1038 2100 1021Q2171 1004 2225 967Q2280 930 2312 873Q2345 816 2345 735L2345 170Q2345 161 2346 150Q2347 139 2351 130Q2355 121 2363 115Q2371 109 2386 109Q2404 109 2419 122Q2435 136 2447 150L2472 129Q2457 108 2436 83Q2415 58 2385 36Q2355 14 2315 -1Q2275 -16 2224 -16Q2161 -16 2112 21Q2063 59 2048 137Q2016 94 1981 65Q1947 36 1911 18Q1875 0 1838 -8Q1802 -16 1765 -16Q1717 -16 1672 -1Q1627 14 1591 46Q1556 79 1534 131Q1513 183 1513 258Q1513 349 1549 407Q1585 465 1643 504Q1702 544 1776 572Q1851 600 1929 631Q1987 654 2013 699Q2040 745 2040 793Q2040 867 1996 911Q1953 956 1878 956ZM3242 692Q3211 692 3190 701Q3169 711 3156 727Q3143 743 3137 762Q3131 782 3131 803Q3131 830 3134 855Q3138 880 3135 900Q3133 920 3120 932Q3107 944 3074 944Q3039 944 3000 924Q2961 904 2929 861Q2897 818 2876 750Q2855 683 2855 588Q2855 483 2874 396Q2894 310 2933 249Q2972 188 3030 154Q3088 121 3166 121Q3201 121 3232 129Q3264 137 3292 151Q3320 165 3345 183Q3371 202 3395 223L3420 199Q3397 168 3361 131Q3325 94 3274 61Q3223 29 3155 7Q3087 -14 3000 -14Q2913 -14 2830 19Q2748 53 2684 117Q2620 181 2581 272Q2543 364 2543 481Q2543 572 2566 648Q2589 725 2628 787Q2668 849 2720 896Q2773 943 2831 974Q2889 1006 2949 1022Q3010 1038 3066 1038Q3140 1038 3195 1021Q3250 1004 3286 976Q3323 948 3341 911Q3359 875 3359 836Q3359 807 3351 780Q3344 754 3329 734Q3315 715 3293 703Q3271 692 3242 692ZM3874 872L3874 90Q3874 77 3869 58Q3865 40 3848 23Q3832 7 3801 -5Q3770 -16 3717 -16Q3664 -16 3634 -4Q3604 9 3589 26Q3574 43 3570 61Q3567 79 3567 90L3567 862Q3567 891 3553 912Q3540 934 3508 934Q3491 934 3479 928Q3467 922 3453 911L3432 936Q3455 955 3483 973Q3512 992 3545 1006Q3578 1020 3616 1029Q3654 1038 3696 1038Q3761 1038 3797 1020Q3833 1003 3850 977Q3867 952 3870 923Q3874 894 3874 872ZM3536 1266Q3536 1294 3548 1319Q3561 1345 3583 1364Q3606 1383 3635 1394Q3665 1405 3700 1405Q3734 1405 3763 1394Q3793 1383 3815 1364Q3837 1345 3849 1319Q3862 1294 3862 1266Q3862 1237 3849 1212Q3837 1187 3815 1168Q3793 1150 3763 1139Q3734 1128 3700 1128Q3665 1128 3635 1139Q3606 1150 3583 1168Q3561 1187 3548 1212Q3536 1237 3536 1266ZM4619 1487Q4591 1487 4566 1475Q4541 1463 4522 1436Q4504 1410 4493 1369Q4482 1328 4482 1270L4482 1024L4701 1024L4701 952L4482 952L4482 164Q4482 28 4446 -87Q4411 -202 4339 -286Q4267 -369 4159 -416Q4051 -463 3907 -463Q3856 -463 3809 -455Q3762 -446 3726 -431Q3690 -416 3668 -396Q3647 -375 3647 -350Q3647 -332 3652 -314Q3657 -295 3667 -280Q3677 -265 3691 -256Q3706 -246 3725 -246Q3736 -246 3744 -257Q3753 -268 3762 -284Q3771 -300 3782 -320Q3794 -339 3812 -355Q3830 -371 3856 -382Q3883 -393 3921 -393Q3972 -393 4011 -373Q4050 -352 4078 -316Q4106 -280 4125 -231Q4144 -182 4155 -126Q4166 -70 4170 -9Q4175 52 4175 113L4175 952L3991 952L3991 1024L4175 1024L4175 1141Q4175 1229 4196 1294Q4218 1360 4253 1406Q4289 1452 4334 1481Q4379 1510 4425 1527Q4472 1544 4516 1550Q4560 1556 4593 1556Q4664 1556 4719 1545Q4774 1535 4811 1517Q4848 1500 4867 1477Q4886 1454 4886 1430Q4886 1412 4880 1393Q4875 1375 4865 1359Q4855 1344 4840 1334Q4826 1325 4808 1325Q4797 1325 4788 1337Q4779 1349 4769 1367Q4759 1385 4747 1406Q4735 1427 4717 1445Q4700 1463 4676 1475Q4652 1487 4619 1487ZM5111 872L5111 90Q5111 77 5106 58Q5102 40 5085 23Q5069 7 5038 -5Q5007 -16 4954 -16Q4901 -16 4871 -4Q4841 9 4826 26Q4811 43 4807 61Q4804 79 4804 90L4804 862Q4804 891 4790 912Q4777 934 4745 934Q4728 934 4716 928Q4704 922 4690 911L4669 936Q4692 955 4720 973Q4749 992 4782 1006Q4815 1020 4853 1029Q4891 1038 4933 1038Q4998 1038 5034 1020Q5070 1003 5087 977Q5104 952 5107 923Q5111 894 5111 872ZM4773 1266Q4773 1294 4785 1319Q4798 1345 4820 1364Q4843 1383 4872 1394Q4902 1405 4937 1405Q4971 1405 5000 1394Q5030 1383 5052 1364Q5074 1345 5086 1319Q5099 1294 5099 1266Q5099 1237 5086 1212Q5074 1187 5052 1168Q5030 1150 5000 1139Q4971 1128 4937 1128Q4902 1128 4872 1139Q4843 1150 4820 1168Q4798 1187 4785 1212Q4773 1237 4773 1266ZM5998 692Q5967 692 5946 701Q5925 711 5912 727Q5899 743 5893 762Q5887 782 5887 803Q5887 830 5890 855Q5894 880 5891 900Q5889 920 5876 932Q5863 944 5830 944Q5795 944 5756 924Q5717 904 5685 861Q5653 818 5632 750Q5611 683 5611 588Q5611 483 5630 396Q5650 310 5689 249Q5728 188 5786 154Q5844 121 5922 121Q5957 121 5988 129Q6020 137 6048 151Q6076 165 6101 183Q6127 202 6151 223L6176 199Q6153 168 6117 131Q6081 94 6030 61Q5979 29 5911 7Q5843 -14 5756 -14Q5669 -14 5586 19Q5504 53 5440 117Q5376 181 5337 272Q5299 364 5299 481Q5299 572 5322 648Q5345 725 5384 787Q5424 849 5476 896Q5529 943 5587 974Q5645 1006 5705 1022Q5766 1038 5822 1038Q5896 1038 5951 1021Q6006 1004 6042 976Q6079 948 6097 911Q6115 875 6115 836Q6115 807 6107 780Q6100 754 6085 734Q6071 715 6049 703Q6027 692 5998 692ZM7083 -145Q7123 -145 7162 -131Q7201 -116 7231 -83Q7262 -49 7281 5Q7300 59 7300 137Q7300 221 7258 300Q7217 379 7154 455Q7092 532 7019 607Q6947 683 6884 761Q6822 840 6780 923Q6739 1007 6739 1098Q6739 1189 6772 1262Q6806 1336 6863 1387Q6921 1439 6997 1467Q7074 1495 7161 1495Q7254 1495 7326 1475Q7399 1456 7449 1422Q7500 1389 7526 1343Q7552 1298 7552 1247Q7552 1223 7545 1197Q7538 1172 7523 1151Q7508 1130 7485 1116Q7462 1102 7431 1102Q7394 1102 7376 1124Q7359 1147 7350 1180Q7342 1213 7336 1252Q7330 1292 7317 1325Q7304 1358 7278 1380Q7252 1403 7202 1403Q7175 1403 7148 1391Q7122 1379 7100 1354Q7079 1330 7066 1292Q7053 1254 7053 1202Q7053 1142 7078 1085Q7103 1028 7144 972Q7185 917 7237 861Q7290 806 7344 749Q7399 693 7451 633Q7504 574 7545 510Q7586 446 7611 376Q7636 306 7636 229Q7636 116 7592 27Q7549 -61 7474 -122Q7400 -182 7300 -214Q7200 -246 7087 -246Q6985 -246 6906 -221Q6828 -195 6774 -153Q6720 -111 6692 -58Q6665 -4 6665 53Q6665 77 6672 104Q6680 132 6694 155Q6709 178 6731 193Q6753 209 6782 209Q6812 209 6830 194Q6849 179 6860 154Q6871 129 6878 97Q6885 65 6893 32Q6901 -1 6913 -33Q6925 -65 6946 -90Q6967 -115 7000 -130Q7033 -145 7083 -145ZM8304 952L8149 952L8149 213Q8149 160 8169 139Q8189 119 8224 119Q8251 119 8272 134Q8293 149 8308 168Q8326 189 8339 217L8370 203Q8355 171 8334 133Q8314 95 8280 62Q8246 30 8194 8Q8143 -14 8065 -14Q8021 -14 7980 -1Q7940 12 7908 40Q7877 68 7858 110Q7839 152 7839 211L7839 952L7727 952L7727 1024Q7755 1024 7805 1038Q7855 1053 7907 1087Q7960 1121 8005 1178Q8050 1235 8069 1319L8149 1319L8149 1024L8312 1024Q8392 1024 8392 1051Q8392 1061 8382 1064Q8372 1068 8359 1073Q8347 1079 8337 1089Q8327 1099 8327 1122Q8327 1150 8344 1166Q8362 1182 8390 1182Q8408 1182 8421 1174Q8435 1167 8444 1154Q8453 1142 8457 1126Q8462 1110 8462 1094Q8462 1029 8424 990Q8387 952 8304 952ZM8965 274L8965 518Q8965 543 8949 556Q8933 569 8908 569Q8873 569 8841 553Q8810 537 8786 506Q8762 475 8748 429Q8734 384 8734 324Q8734 266 8742 228Q8751 190 8765 167Q8780 145 8799 136Q8818 127 8839 127Q8865 127 8888 140Q8911 154 8928 175Q8945 196 8955 222Q8965 248 8965 274ZM8806 956Q8772 956 8743 948Q8714 940 8693 928Q8672 916 8660 901Q8648 887 8648 874Q8648 859 8663 852Q8679 846 8698 837Q8717 829 8732 813Q8748 798 8748 766Q8748 745 8739 727Q8731 710 8716 696Q8702 683 8682 675Q8663 668 8642 668Q8586 668 8551 706Q8517 744 8517 807Q8517 868 8549 911Q8581 955 8632 983Q8684 1011 8749 1024Q8814 1038 8879 1038Q8957 1038 9028 1021Q9099 1004 9153 967Q9208 930 9240 873Q9273 816 9273 735L9273 170Q9273 161 9274 150Q9275 139 9279 130Q9283 121 9291 115Q9299 109 9314 109Q9332 109 9347 122Q9363 136 9375 150L9400 129Q9385 108 9364 83Q9343 58 9313 36Q9283 14 9243 -1Q9203 -16 9152 -16Q9089 -16 9040 21Q8991 59 8976 137Q8944 94 8909 65Q8875 36 8839 18Q8803 0 8766 -8Q8730 -16 8693 -16Q8645 -16 8600 -1Q8555 14 8519 46Q8484 79 8462 131Q8441 183 8441 258Q8441 349 8477 407Q8513 465 8571 504Q8630 544 8704 572Q8779 600 8857 631Q8915 654 8941 699Q8968 745 8968 793Q8968 867 8924 911Q8881 956 8806 956ZM10123 498Q10123 624 10111 699Q10100 775 10081 814Q10062 854 10039 866Q10016 879 9992 879Q9963 879 9940 863Q9918 848 9901 828Q9885 808 9873 788Q9862 768 9854 758L9854 90Q9854 77 9850 58Q9846 40 9830 23Q9815 7 9784 -5Q9754 -16 9701 -16Q9648 -16 9617 -4Q9587 9 9571 26Q9555 43 9551 61Q9547 79 9547 90L9547 862Q9547 891 9533 912Q9520 934 9488 934Q9471 934 9459 928Q9447 922 9433 911L9412 936Q9435 955 9463 973Q9492 992 9525 1006Q9558 1020 9596 1029Q9634 1038 9676 1038Q9741 1038 9777 1016Q9813 995 9830 965Q9847 935 9850 902Q9854 870 9854 848Q9891 901 9938 943Q9957 961 9980 978Q10004 995 10030 1008Q10057 1022 10086 1030Q10116 1038 10147 1038Q10215 1038 10267 1012Q10320 986 10356 925Q10392 864 10411 763Q10430 663 10430 514Q10430 369 10404 262Q10378 155 10336 80Q10294 5 10241 -43Q10188 -90 10134 -117Q10080 -144 10030 -155Q9981 -165 9945 -166L9934 -125Q9964 -118 9989 -103Q10015 -88 10036 -59Q10057 -30 10073 14Q10089 59 10100 126Q10112 193 10117 284Q10123 376 10123 498ZM11192 543Q11192 554 11192 587Q11192 621 11190 664Q11188 708 11183 757Q11178 806 11167 848Q11143 879 11113 903Q11084 928 11038 928Q10960 928 10923 826Q10887 724 10887 510Q10887 416 10895 338Q10904 260 10921 204Q10939 148 10966 117Q10994 86 11032 86Q11192 86 11192 543ZM11180 983Q11161 1083 11127 1169Q11093 1256 11045 1319Q10998 1382 10937 1418Q10877 1454 10807 1454Q10767 1454 10734 1444Q10702 1434 10678 1420Q10654 1407 10638 1394Q10623 1382 10616 1376L10590 1411Q10614 1442 10648 1469Q10683 1496 10724 1515Q10765 1534 10810 1545Q10856 1556 10901 1556Q11049 1556 11161 1491Q11273 1427 11348 1309Q11423 1191 11461 1024Q11499 857 11499 653Q11499 488 11465 363Q11432 238 11370 153Q11308 69 11219 26Q11131 -16 11020 -16Q10943 -16 10863 11Q10784 39 10719 101Q10655 163 10614 263Q10573 364 10573 510Q10573 636 10608 734Q10644 832 10704 899Q10764 967 10843 1002Q10922 1038 11010 1038Q11044 1038 11071 1032Q11098 1027 11118 1019Q11138 1011 11153 1001Q11168 992 11180 983ZM12140 274L12140 518Q12140 543 12124 556Q12108 569 12083 569Q12048 569 12016 553Q11985 537 11961 506Q11937 475 11923 429Q11909 384 11909 324Q11909 266 11917 228Q11926 190 11940 167Q11955 145 11974 136Q11993 127 12014 127Q12040 127 12063 140Q12086 154 12103 175Q12120 196 12130 222Q12140 248 12140 274ZM11981 956Q11947 956 11918 948Q11889 940 11868 928Q11847 916 11835 901Q11823 887 11823 874Q11823 859 11838 852Q11854 846 11873 837Q11892 829 11907 813Q11923 798 11923 766Q11923 745 11914 727Q11906 710 11891 696Q11877 683 11857 675Q11838 668 11817 668Q11761 668 11726 706Q11692 744 11692 807Q11692 868 11724 911Q11756 955 11807 983Q11859 1011 11924 1024Q11989 1038 12054 1038Q12132 1038 12203 1021Q12274 1004 12328 967Q12383 930 12415 873Q12448 816 12448 735L12448 170Q12448 161 12449 150Q12450 139 12454 130Q12458 121 12466 115Q12474 109 12489 109Q12507 109 12522 122Q12538 136 12550 150L12575 129Q12560 108 12539 83Q12518 58 12488 36Q12458 14 12418 -1Q12378 -16 12327 -16Q12264 -16 12215 21Q12166 59 12151 137Q12119 94 12084 65Q12050 36 12014 18Q11978 0 11941 -8Q11905 -16 11868 -16Q11820 -16 11775 -1Q11730 14 11694 46Q11659 79 11637 131Q11616 183 11616 258Q11616 349 11652 407Q11688 465 11746 504Q11805 544 11879 572Q11954 600 12032 631Q12090 654 12116 699Q12143 745 12143 793Q12143 867 12099 911Q12056 956 11981 956ZM13029 827Q13067 885 13110 932Q13128 952 13149 971Q13170 990 13192 1005Q13215 1020 13239 1029Q13263 1038 13287 1038Q13338 1038 13367 1007Q13396 977 13396 922Q13396 888 13390 856Q13385 825 13369 780L13341 780Q13335 811 13313 831Q13291 852 13249 852Q13218 852 13188 840Q13158 829 13129 812Q13101 795 13075 775Q13050 755 13029 737L13029 88Q13029 75 13025 57Q13021 39 13005 23Q12990 7 12959 -5Q12929 -16 12876 -16Q12823 -16 12792 -4Q12762 9 12746 26Q12730 43 12726 61Q12722 79 12722 90L12722 862Q12722 891 12708 912Q12695 934 12663 934Q12646 934 12634 928Q12622 922 12608 911L12587 936Q12610 955 12638 973Q12667 992 12700 1006Q12733 1020 12771 1029Q12809 1038 12851 1038Q12894 1038 12924 1026Q12955 1015 12974 996Q12994 978 13005 955Q13016 932 13021 908Q13027 885 13028 863Q13029 842 13029 827ZM14078 543Q14078 554 14078 587Q14078 621 14076 664Q14074 708 14069 757Q14064 806 14053 848Q14029 879 13999 903Q13970 928 13924 928Q13846 928 13809 826Q13773 724 13773 510Q13773 416 13781 338Q13790 260 13807 204Q13825 148 13852 117Q13880 86 13918 86Q14078 86 14078 543ZM14066 983Q14047 1083 14013 1169Q13979 1256 13931 1319Q13884 1382 13823 1418Q13763 1454 13693 1454Q13653 1454 13620 1444Q13588 1434 13564 1420Q13540 1407 13524 1394Q13509 1382 13502 1376L13476 1411Q13500 1442 13534 1469Q13569 1496 13610 1515Q13651 1534 13696 1545Q13742 1556 13787 1556Q13935 1556 14047 1491Q14159 1427 14234 1309Q14309 1191 14347 1024Q14385 857 14385 653Q14385 488 14351 363Q14318 238 14256 153Q14194 69 14105 26Q14017 -16 13906 -16Q13829 -16 13749 11Q13670 39 13605 101Q13541 163 13500 263Q13459 364 13459 510Q13459 636 13494 734Q13530 832 13590 899Q13650 967 13729 1002Q13808 1038 13896 1038Q13930 1038 13957 1032Q13984 1027 14004 1019Q14024 1011 14039 1001Q14054 992 14066 983ZM15754 1311L15754 178Q15754 155 15758 134Q15763 114 15776 99Q15790 84 15813 75Q15837 66 15875 66Q15930 66 15976 97Q16022 129 16055 178Q16088 228 16106 289Q16124 351 16124 412Q16124 503 16099 572Q16075 642 16031 690Q15987 738 15927 764Q15867 791 15797 795L15817 846Q15861 844 15901 858Q15941 872 15971 907Q16002 942 16020 1001Q16038 1061 16038 1151Q16038 1212 16023 1261Q16008 1310 15983 1343Q15959 1377 15926 1395Q15894 1413 15860 1413Q15839 1413 15819 1408Q15800 1403 15785 1391Q15771 1379 15762 1359Q15754 1340 15754 1311ZM15774 1495Q16064 1495 16200 1404Q16337 1314 16337 1141Q16337 1098 16327 1062Q16318 1026 16303 996Q16288 967 16269 944Q16250 921 16230 904Q16183 863 16124 840L16124 825Q16217 814 16291 769Q16322 750 16352 721Q16382 693 16405 652Q16429 612 16443 558Q16458 505 16458 436Q16458 331 16420 247Q16382 163 16307 104Q16232 46 16120 15Q16008 -16 15860 -16Q15723 -16 15637 1Q15551 18 15503 50Q15455 83 15437 129Q15420 175 15420 233L15420 1327Q15420 1382 15344 1382Q15289 1382 15232 1365Q15176 1349 15130 1320Q15085 1292 15056 1252Q15027 1213 15027 1167Q15027 1135 15035 1116Q15044 1097 15055 1087Q15066 1078 15077 1075Q15089 1073 15094 1073Q15119 1073 15135 1081Q15151 1090 15164 1099Q15177 1109 15188 1117Q15200 1126 15215 1126Q15227 1126 15240 1120Q15254 1115 15265 1103Q15277 1091 15285 1071Q15293 1052 15293 1024Q15293 984 15277 955Q15262 926 15237 906Q15213 887 15181 877Q15150 868 15119 868Q15071 868 15032 884Q14994 901 14967 930Q14940 959 14926 998Q14912 1037 14912 1081Q14912 1164 14943 1227Q14974 1291 15030 1337Q15087 1383 15166 1413Q15245 1444 15341 1462Q15437 1480 15546 1487Q15656 1495 15774 1495ZM17095 274L17095 518Q17095 543 17079 556Q17063 569 17038 569Q17003 569 16971 553Q16940 537 16916 506Q16892 475 16878 429Q16864 384 16864 324Q16864 266 16872 228Q16881 190 16895 167Q16910 145 16929 136Q16948 127 16969 127Q16995 127 17018 140Q17041 154 17058 175Q17075 196 17085 222Q17095 248 17095 274ZM16936 956Q16902 956 16873 948Q16844 940 16823 928Q16802 916 16790 901Q16778 887 16778 874Q16778 859 16793 852Q16809 846 16828 837Q16847 829 16862 813Q16878 798 16878 766Q16878 745 16869 727Q16861 710 16846 696Q16832 683 16812 675Q16793 668 16772 668Q16716 668 16681 706Q16647 744 16647 807Q16647 868 16679 911Q16711 955 16762 983Q16814 1011 16879 1024Q16944 1038 17009 1038Q17087 1038 17158 1021Q17229 1004 17283 967Q17338 930 17370 873Q17403 816 17403 735L17403 170Q17403 161 17404 150Q17405 139 17409 130Q17413 121 17421 115Q17429 109 17444 109Q17462 109 17477 122Q17493 136 17505 150L17530 129Q17515 108 17494 83Q17473 58 17443 36Q17413 14 17373 -1Q17333 -16 17282 -16Q17219 -16 17170 21Q17121 59 17106 137Q17074 94 17039 65Q17005 36 16969 18Q16933 0 16896 -8Q16860 -16 16823 -16Q16775 -16 16730 -1Q16685 14 16649 46Q16614 79 16592 131Q16571 183 16571 258Q16571 349 16607 407Q16643 465 16701 504Q16760 544 16834 572Q16909 600 16987 631Q17045 654 17071 699Q17098 745 17098 793Q17098 867 17054 911Q17011 956 16936 956ZM18253 498Q18253 624 18241 699Q18230 775 18211 814Q18192 854 18169 866Q18146 879 18122 879Q18093 879 18070 863Q18048 848 18031 828Q18015 808 18003 788Q17992 768 17984 758L17984 90Q17984 77 17980 58Q17976 40 17960 23Q17945 7 17914 -5Q17884 -16 17831 -16Q17778 -16 17747 -4Q17717 9 17701 26Q17685 43 17681 61Q17677 79 17677 90L17677 862Q17677 891 17663 912Q17650 934 17618 934Q17601 934 17589 928Q17577 922 17563 911L17542 936Q17565 955 17593 973Q17622 992 17655 1006Q17688 1020 17726 1029Q17764 1038 17806 1038Q17871 1038 17907 1016Q17943 995 17960 965Q17977 935 17980 902Q17984 870 17984 848Q18021 901 18068 943Q18087 961 18110 978Q18134 995 18160 1008Q18187 1022 18216 1030Q18246 1038 18277 1038Q18345 1038 18397 1012Q18450 986 18486 925Q18522 864 18541 763Q18560 663 18560 514Q18560 369 18534 262Q18508 155 18466 80Q18424 5 18371 -43Q18318 -90 18264 -117Q18210 -144 18160 -155Q18111 -165 18075 -166L18064 -125Q18094 -118 18119 -103Q18145 -88 18166 -59Q18187 -30 18203 14Q18219 59 18230 126Q18242 193 18247 284Q18253 376 18253 498ZM19076 1391L19076 766Q19111 813 19151 861Q19191 910 19237 949Q19283 988 19337 1013Q19391 1038 19455 1038Q19512 1038 19550 1015Q19588 993 19611 961Q19635 930 19644 896Q19654 862 19654 838Q19654 794 19642 746Q19631 699 19603 652Q19576 606 19530 562Q19484 519 19414 483Q19508 284 19597 140Q19686 -3 19768 -96Q19851 -188 19927 -232Q20003 -276 20072 -276Q20084 -276 20096 -273Q20108 -270 20118 -266Q20129 -262 20141 -256L20160 -291Q20133 -306 20105 -320Q20077 -333 20041 -343Q20005 -353 19958 -359Q19911 -365 19846 -365Q19787 -365 19729 -351Q19672 -337 19614 -301Q19556 -265 19496 -205Q19437 -145 19374 -53Q19312 39 19246 166Q19180 293 19109 463Q19205 534 19260 594Q19315 655 19343 704Q19371 753 19378 791Q19385 829 19385 856Q19385 860 19384 869Q19383 879 19377 888Q19372 897 19361 904Q19351 911 19332 911Q19295 911 19257 879Q19219 848 19184 801Q19150 755 19122 701Q19094 648 19076 604L19076 88Q19076 75 19071 57Q19067 39 19050 23Q19034 7 19002 -5Q18971 -16 18918 -16Q18865 -16 18835 -4Q18805 9 18790 26Q18776 43 18772 61Q18769 79 18769 90L18769 1380Q18769 1409 18755 1430Q18742 1452 18710 1452Q18693 1452 18680 1446Q18668 1441 18654 1430L18634 1454Q18657 1473 18685 1491Q18713 1510 18746 1524Q18780 1538 18818 1547Q18856 1556 18898 1556Q18963 1556 18999 1538Q19035 1521 19052 1495Q19069 1470 19072 1441Q19076 1413 19076 1391Z" fill="#ffffff" style=""></path></g></g><g transform="matrix(0.75,0,0,0.75,-7.68,1107.02)"><g transform="matrix(1.024,0,0,-1.024,0,0)"><path d="M10 616L10 700L535 700L535 616L320 616L320 0L225 0L225 616L10 616ZM715 740L715 437Q743 478 785 505Q828 532 887 532Q975 532 1018 479Q1062 426 1062 339L1062 0L972 0L972 329Q972 386 946 419Q921 453 873 453Q850 453 827 444Q805 436 785 421Q765 406 747 386Q729 366 715 344L715 0L625 0L625 740L715 740ZM1638 223L1274 223Q1283 150 1325 109Q1367 68 1436 68Q1481 68 1517 77Q1553 87 1586 102L1607 25Q1571 8 1526 -2Q1481 -12 1425 -12Q1369 -12 1324 6Q1279 25 1247 59Q1216 94 1199 144Q1182 195 1182 260Q1182 318 1199 368Q1216 418 1247 454Q1278 491 1321 511Q1364 532 1417 532Q1473 532 1515 513Q1557 494 1585 461Q1613 428 1627 384Q1641 340 1641 291Q1641 256 1638 223ZM1415 454Q1356 454 1318 414Q1281 374 1273 296L1558 296Q1558 372 1520 413Q1482 454 1415 454ZM2071 2L2071 698Q2106 702 2157 705Q2209 708 2277 708Q2406 708 2474 660Q2543 612 2543 528Q2543 472 2514 434Q2485 396 2428 371Q2496 347 2531 305Q2566 263 2566 200Q2566 104 2491 48Q2417 -8 2273 -8Q2212 -8 2157 -6Q2103 -3 2071 2ZM2280 71Q2370 71 2419 103Q2469 135 2469 196Q2469 256 2420 290Q2371 324 2280 324L2166 324L2166 77Q2218 71 2280 71ZM2166 398L2276 398Q2355 398 2401 430Q2448 463 2448 516Q2448 573 2402 602Q2356 631 2276 631Q2243 631 2216 629Q2189 628 2166 626L2166 398ZM2656 257Q2656 315 2674 365Q2692 416 2724 453Q2757 490 2802 511Q2848 532 2902 532Q2947 532 2983 516Q3020 501 3047 478L3047 520L3129 520L3129 126Q3129 88 3147 76Q3166 65 3188 65L3169 -5Q3073 -5 3053 73Q3041 57 3025 41Q3010 26 2990 14Q2970 2 2945 -5Q2920 -12 2890 -12Q2841 -12 2798 7Q2756 26 2724 61Q2693 96 2674 145Q2656 195 2656 257ZM2910 68Q2948 68 2982 86Q3016 104 3039 133L3039 412Q3012 431 2979 442Q2947 454 2911 454Q2875 454 2845 440Q2815 426 2793 400Q2772 375 2760 339Q2748 303 2748 260Q2748 218 2760 182Q2772 147 2794 121Q2816 96 2845 82Q2875 68 2910 68ZM3395 520L3395 433Q3423 475 3466 503Q3510 532 3570 532Q3658 532 3701 479Q3745 426 3745 339L3745 0L3655 0L3655 329Q3655 386 3629 419Q3603 453 3555 453Q3532 453 3510 444Q3488 436 3467 421Q3447 406 3429 386Q3412 366 3398 344L3398 0L3308 0L3308 520L3395 520ZM3900 0L3900 740L3990 740L3990 317L4225 530L4277 473L4076 295L4321 50L4259 -10L3990 267L3990 0L3900 0ZM4733 501L4752 665L4821 665L4821 501L4965 501L4965 423L4821 423L4821 172Q4821 143 4827 123Q4834 103 4845 91Q4856 79 4871 73Q4887 68 4904 68Q4929 68 4951 76Q4973 84 4993 95L5018 23Q4998 11 4964 -1Q4930 -12 4893 -12Q4818 -12 4774 37Q4731 86 4731 179L4731 423L4641 423L4641 501L4733 501ZM5198 740L5198 437Q5226 478 5268 505Q5311 532 5370 532Q5458 532 5501 479Q5545 426 5545 339L5545 0L5455 0L5455 329Q5455 386 5429 419Q5404 453 5356 453Q5333 453 5310 444Q5288 436 5268 421Q5248 406 5230 386Q5212 366 5198 344L5198 0L5108 0L5108 740L5198 740ZM5665 257Q5665 315 5683 365Q5701 416 5733 453Q5766 490 5811 511Q5857 532 5911 532Q5956 532 5992 516Q6029 501 6056 478L6056 520L6138 520L6138 126Q6138 88 6156 76Q6175 65 6197 65L6178 -5Q6082 -5 6062 73Q6050 57 6034 41Q6019 26 5999 14Q5979 2 5954 -5Q5929 -12 5899 -12Q5850 -12 5807 7Q5765 26 5733 61Q5702 96 5683 145Q5665 195 5665 257ZM5919 68Q5957 68 5991 86Q6025 104 6048 133L6048 412Q6021 431 5988 442Q5956 454 5920 454Q5884 454 5854 440Q5824 426 5802 400Q5781 375 5769 339Q5757 303 5757 260Q5757 218 5769 182Q5781 147 5803 121Q5825 96 5854 82Q5884 68 5919 68ZM6339 501L6358 665L6427 665L6427 501L6571 501L6571 423L6427 423L6427 172Q6427 143 6433 123Q6440 103 6451 91Q6462 79 6477 73Q6493 68 6510 68Q6535 68 6557 76Q6579 84 6599 95L6624 23Q6604 11 6570 -1Q6536 -12 6499 -12Q6424 -12 6380 37Q6337 86 6337 179L6337 423L6247 423L6247 501L6339 501ZM7014 0L7014 740L7104 740L7104 466Q7114 477 7129 489Q7144 501 7162 510Q7181 520 7204 526Q7227 532 7254 532Q7299 532 7340 514Q7382 496 7413 462Q7445 428 7464 378Q7483 328 7483 265Q7483 203 7463 152Q7443 101 7410 64Q7377 28 7334 8Q7292 -12 7248 -12Q7203 -12 7163 4Q7124 20 7098 43L7098 0L7014 0ZM7391 262Q7391 307 7378 342Q7366 378 7344 403Q7323 428 7294 441Q7266 454 7234 454Q7191 454 7156 432Q7122 411 7104 386L7104 108Q7127 90 7158 79Q7189 68 7224 68Q7260 68 7291 82Q7322 96 7344 121Q7366 147 7378 182Q7391 218 7391 262ZM8029 223L7665 223Q7674 150 7716 109Q7758 68 7827 68Q7872 68 7908 77Q7944 87 7977 102L7998 25Q7962 8 7917 -2Q7872 -12 7816 -12Q7760 -12 7715 6Q7670 25 7638 59Q7607 94 7590 144Q7573 195 7573 260Q7573 318 7590 368Q7607 418 7638 454Q7669 491 7712 511Q7755 532 7808 532Q7864 532 7906 513Q7948 494 7976 461Q8004 428 8018 384Q8032 340 8032 291Q8032 256 8029 223ZM7806 454Q7747 454 7709 414Q7672 374 7664 296L7949 296Q7949 372 7911 413Q7873 454 7806 454ZM8358 532Q8403 532 8438 517Q8474 502 8500 480L8500 520L8582 520L8582 12Q8582 -53 8565 -99Q8548 -145 8516 -175Q8485 -204 8441 -218Q8397 -232 8343 -232Q8296 -232 8253 -221Q8210 -210 8176 -188L8209 -110Q8233 -129 8265 -142Q8297 -154 8343 -154Q8414 -154 8454 -117Q8495 -80 8495 3L8495 67Q8475 43 8437 21Q8400 0 8348 0Q8304 0 8262 17Q8220 35 8188 68Q8156 102 8136 150Q8117 199 8117 262Q8117 320 8136 369Q8155 419 8187 455Q8220 491 8264 511Q8308 532 8358 532ZM8368 80Q8408 80 8440 98Q8472 116 8492 140L8492 412Q8469 428 8439 441Q8409 454 8367 454Q8336 454 8307 441Q8279 429 8257 405Q8235 381 8222 346Q8209 312 8209 267Q8209 224 8222 189Q8235 155 8257 130Q8279 106 8307 93Q8336 80 8368 80ZM8827 520L8827 0L8737 0L8737 520L8827 520ZM8782 609Q8756 609 8737 627Q8719 646 8719 672Q8719 701 8736 718Q8753 735 8782 735Q8808 735 8826 716Q8845 698 8845 672Q8845 643 8828 626Q8811 609 8782 609ZM9074 520L9074 433Q9102 475 9145 503Q9189 532 9249 532Q9337 532 9380 479Q9424 426 9424 339L9424 0L9334 0L9334 329Q9334 386 9308 419Q9282 453 9234 453Q9211 453 9189 444Q9167 436 9146 421Q9126 406 9108 386Q9091 366 9077 344L9077 0L8987 0L8987 520L9074 520ZM9534 42L9572 117Q9598 94 9637 80Q9677 66 9722 66Q9778 66 9806 84Q9835 103 9835 132Q9835 147 9829 160Q9824 173 9809 185Q9795 197 9770 208Q9745 220 9705 234Q9631 259 9595 293Q9559 328 9559 389Q9559 419 9572 445Q9586 471 9611 490Q9637 510 9673 521Q9710 532 9757 532Q9808 532 9846 521Q9885 511 9916 495L9891 421Q9864 437 9829 447Q9795 457 9753 457Q9701 457 9674 436Q9647 415 9647 390Q9647 378 9651 368Q9656 358 9668 349Q9680 340 9700 331Q9720 322 9750 312Q9799 295 9833 277Q9867 260 9888 239Q9909 218 9918 193Q9927 169 9927 139Q9927 104 9912 76Q9897 48 9870 28Q9843 9 9804 -2Q9766 -12 9719 -12Q9659 -12 9612 3Q9565 18 9534 42ZM10847 102L10980 525L11060 496L10895 0L10796 0L10676 387L10555 0L10456 0L10292 496L10375 525L10509 102L10631 483L10728 483L10847 102ZM11255 520L11255 0L11165 0L11165 520L11255 520ZM11210 609Q11184 609 11165 627Q11147 646 11147 672Q11147 701 11164 718Q11181 735 11210 735Q11236 735 11254 716Q11273 698 11273 672Q11273 643 11256 626Q11239 609 11210 609ZM11437 501L11456 665L11525 665L11525 501L11669 501L11669 423L11525 423L11525 172Q11525 143 11531 123Q11538 103 11549 91Q11560 79 11575 73Q11591 68 11608 68Q11633 68 11655 76Q11677 84 11697 95L11722 23Q11702 11 11668 -1Q11634 -12 11597 -12Q11522 -12 11478 37Q11435 86 11435 179L11435 423L11345 423L11345 501L11437 501ZM11902 740L11902 437Q11930 478 11972 505Q12015 532 12074 532Q12162 532 12205 479Q12249 426 12249 339L12249 0L12159 0L12159 329Q12159 386 12133 419Q12108 453 12060 453Q12037 453 12014 444Q11992 436 11972 421Q11952 406 11934 386Q11916 366 11902 344L11902 0L11812 0L11812 740L11902 740ZM12714 709L12928 354L13138 705L13213 661L12972 266L12972 0L12877 0L12877 266L12634 661L12714 709ZM13689 260Q13689 299 13676 334Q13664 369 13641 395Q13619 421 13588 436Q13558 452 13522 452Q13443 452 13399 400Q13355 348 13355 262Q13355 223 13367 187Q13380 152 13402 125Q13425 99 13455 83Q13486 68 13522 68Q13561 68 13592 82Q13623 96 13644 121Q13666 147 13677 182Q13689 217 13689 260ZM13263 260Q13263 323 13283 373Q13303 424 13337 459Q13372 494 13419 513Q13467 532 13522 532Q13576 532 13623 513Q13671 494 13706 459Q13741 424 13761 374Q13781 324 13781 262Q13781 200 13761 149Q13742 99 13707 63Q13672 27 13624 7Q13577 -12 13522 -12Q13466 -12 13418 8Q13371 28 13336 64Q13302 100 13282 150Q13263 200 13263 260ZM14385 65L14366 -5Q14318 -5 14290 14Q14262 33 14251 69Q14216 33 14170 10Q14125 -12 14071 -12Q14037 -12 14005 -2Q13974 9 13949 32Q13925 55 13910 92Q13896 129 13896 182L13896 520L13986 520L13986 194Q13986 133 14011 100Q14037 68 14088 68Q14130 68 14168 84Q14206 101 14236 129L14236 520L14326 520L14326 135Q14326 113 14331 99Q14336 86 14344 78Q14352 71 14363 68Q14374 65 14385 65Z" fill="#ffffff" style=""></path></g></g></g></svg>