<svg version="1.1" xmlns="http://www.w3.org/2000/svg" viewBox="-311.10239916046925 -2758.65617980957 2109.052841762711 3078.144204711914"><desc>Created with Snap</desc><defs></defs><g><rect x="-311.10239916046925" y="-2758.65617980957" width="2109.052841762711" height="3078.144204711914" fill="#143d59" style=""></rect><g transform="matrix(16.6073,0,0,16.6073,-86.9387,-2534.4924)"><g><path d="M78.4,66.5c-5.5,4.8-9.9,15.2-9.9,15.2s-6.9-11.4-12.9-15.3c-9.5-6.1-13.6-6.2-13.6-6.2V65c0,0,7.8,1.2,11.7,4.6   c8.2,7.1,14.8,18.5,14.8,18.5S74.4,75,80.1,70.5C88.1,64.3,95,65,95,65v-4.8C95,60.1,85.1,60.7,78.4,66.5z" fill="#f4b41a" style=""></path><path d="M42,80c-6.4-3.6-17.8-4.3-17.8-4.3s8.7-10.1,10.5-17C37.5,47.9,36.2,44,36.2,44l-4.6,1.6c0,0,1.3,7.7-0.6,12.4   c-4.1,9.9-13,19.8-13,19.8s14.6,1.3,20.7,5.1c8.6,5.4,10.2,12,10.2,12l4.6-1.6C53.5,93.4,49.7,84.4,42,80z" fill="#f4b41a" style=""></path><path d="M35.3,36.8c11.3-0.9,14.6-3.4,14.6-3.4l-3-3.8c0,0-6.9,3.7-12.1,3.4c-10.9-0.6-23.3-5.6-23.3-5.6s3.5,14,1.8,20.9   C10.9,58.2,5,61.8,5,61.8l3,3.8c0,0,7.5-6.5,9.1-15.1c1.3-7.1-1.7-18-1.7-18S28,37.4,35.3,36.8z" fill="#f4b41a" style=""></path><path d="M37.4,17.8c7.3-1.1,16.7-7.4,16.7-7.4s-0.6,13.2,2.4,19.8c4.6,10.2,8,12.5,8,12.5l2.7-4c0,0-5.9-5.2-7.3-10.2   C56.9,18.2,57.7,5,57.7,5s-12.3,7.8-19.5,8.5c-10.2,1-15.6-3.3-15.6-3.3l-2.7,4.1C19.9,14.2,28.6,19.1,37.4,17.8z" fill="#f4b41a" style=""></path><path d="M65,60.5c0,0,3.1-7.2,7.4-10.1c9-6.1,21.9-9.7,21.9-9.7s-11.5-8.9-14.5-15.4c-4.2-9.1-1.9-15.6-1.9-15.6l-4.8-1.2   c0,0-1.9,9.6,2.2,17.4c3.4,6.4,12.5,13.2,12.5,13.2S75,42.9,69.6,47.8c-8.3,7.6-9.4,11.5-9.4,11.5L65,60.5z" fill="#f4b41a" style=""></path></g><desc>Created with Snap</desc><defs></defs></g><g><g transform="matrix(1.024,0,0,-1.024,0,0)"><path d="M13 0Q10 0 10 6Q10 12 13 12Q45 12 61 17Q77 22 85 36Q93 51 99 81L180 544Q184 561 184 577Q184 598 170 605Q157 613 120 613Q118 613 118 619Q118 625 120 625L160 624Q196 622 219 622Q230 622 266 624Q312 628 342 628Q416 628 463 593Q511 558 511 491Q511 472 507 453Q496 390 455 347Q415 304 362 283Q310 262 261 262Q236 262 220 267Q218 267 218 271Q218 274 220 278Q222 282 224 281Q237 277 254 277Q294 277 332 294Q371 311 399 346Q428 382 438 433Q442 453 442 476Q442 540 407 576Q372 613 321 613Q288 613 273 609Q259 605 251 590Q243 576 236 542L155 81Q152 62 152 49Q152 27 165 19Q179 12 216 12Q219 12 219 6Q219 0 216 0Q190 0 175 1L112 2L53 1Q38 0 13 0ZM686 -12Q652 -12 621 -5Q590 3 556 22Q548 27 550 41L564 173Q564 178 569 178Q575 178 575 173Q577 101 610 52Q644 4 711 4Q760 4 797 32Q835 61 845 121Q848 138 848 151Q848 200 819 232Q791 265 737 302Q700 329 678 347Q657 366 642 392Q627 418 627 452Q627 466 630 481Q640 531 670 566Q701 601 744 618Q787 636 833 636Q886 636 941 612Q954 605 953 595L940 484Q940 480 934 480Q929 480 928 484Q924 543 899 582Q874 621 817 621Q774 621 745 599Q717 578 703 546Q690 514 690 483Q690 452 705 427Q720 403 741 386Q762 369 799 343Q856 305 886 271Q916 237 916 186Q916 168 914 158Q901 85 841 36Q781 -12 686 -12ZM1299 352Q1366 346 1404 308Q1442 271 1442 213Q1442 197 1439 180Q1430 130 1397 88Q1364 46 1316 21Q1268 -4 1214 -4Q1184 -4 1149 -1Q1137 0 1120 1Q1103 2 1082 2L1019 1Q1003 0 975 0Q972 0 972 6Q973 12 975 12Q1009 12 1026 17Q1044 23 1053 37Q1062 52 1067 82L1149 545Q1152 563 1152 575Q1152 598 1138 605Q1124 613 1084 613Q1080 613 1080 619Q1081 625 1084 625L1130 624Q1168 622 1189 622Q1207 622 1221 623Q1236 624 1247 625Q1276 628 1297 628Q1370 628 1406 599Q1442 571 1442 523Q1442 509 1439 492Q1428 443 1392 407Q1356 372 1299 352ZM1206 540L1173 352L1213 351Q1284 351 1326 390Q1369 429 1380 492Q1383 509 1383 525Q1383 566 1357 590Q1332 614 1277 614Q1253 614 1240 609Q1228 604 1219 588Q1211 573 1206 540ZM1372 164Q1375 185 1375 203Q1375 263 1340 296Q1305 329 1238 330Q1208 331 1168 328L1125 79Q1122 66 1122 54Q1122 31 1139 22Q1156 13 1201 13Q1274 13 1317 54Q1360 95 1372 164Z" fill="#ffffff" style=""></path></g></g></g></svg>